<svg width="24" height="24" viewBox="0 0 24 24" fill="none" xmlns="http://www.w3.org/2000/svg">
<g id="Social">
<path id="Vector" d="M20.6243 7.97174C20.5219 7.59012 20.321 7.2421 20.0417 6.96252C19.7625 6.68294 19.4147 6.4816 19.0333 6.37866C17.629 6.00098 12 6.00098 12 6.00098C12 6.00098 6.37098 6.00098 4.96674 6.37665C4.58509 6.47926 4.23715 6.68049 3.95787 6.96012C3.67859 7.23975 3.4778 7.58794 3.37567 7.96973C3 9.37598 3 12.309 3 12.309C3 12.309 3 15.242 3.37567 16.6463C3.58259 17.4217 4.1933 18.0324 4.96674 18.2394C6.37098 18.617 12 18.617 12 18.617C12 18.617 17.629 18.617 19.0333 18.2394C19.8087 18.0324 20.4174 17.4217 20.6243 16.6463C21 15.242 21 12.309 21 12.309C21 12.309 21 9.37598 20.6243 7.97174ZM10.2121 15.001V9.61705L14.8728 12.2889L10.2121 15.001Z" fill="white" fill-opacity="0.6"/>
</g>
</svg>
