<svg width="24" height="24" viewBox="0 0 24 24" fill="none" xmlns="http://www.w3.org/2000/svg">
<g id="Social">
<path id="Exclude" fill-rule="evenodd" clip-rule="evenodd" d="M20.25 12.001C20.25 16.9715 16.2206 21.001 11.25 21.001C6.27944 21.001 2.25 16.9715 2.25 12.001C2.25 7.03041 6.27944 3.00098 11.25 3.00098C16.2206 3.00098 20.25 7.03041 20.25 12.001ZM8.36141 12.7643L6.16496 12.0487C6.16496 12.0487 5.90246 11.9422 5.98698 11.7007C6.00438 11.6509 6.03948 11.6085 6.14448 11.5357C6.63116 11.1965 15.1524 8.13368 15.1524 8.13368C15.1524 8.13368 15.393 8.0526 15.5349 8.10653C15.57 8.11739 15.6016 8.13739 15.6265 8.16447C15.6513 8.19155 15.6685 8.22474 15.6763 8.26065C15.6916 8.32408 15.6981 8.38933 15.6954 8.45453C15.6949 8.48909 15.6922 8.52211 15.689 8.56136C15.6869 8.58616 15.6847 8.61344 15.6827 8.64518C15.6308 9.48255 14.0777 15.7322 14.0777 15.7322C14.0777 15.7322 13.9848 16.0979 13.6518 16.1104C13.57 16.113 13.4885 16.0992 13.4122 16.0696C13.3358 16.0401 13.2662 15.9955 13.2075 15.9385C12.8568 15.6369 12.044 15.0601 11.2889 14.5387C11.0605 14.7308 10.6046 15.1251 10.1346 15.5953C9.46723 16.2628 9.55303 15.5953 9.55303 15.5953L9.758 13.4168L9.7621 13.4193C9.77154 13.397 9.78738 13.379 9.78738 13.379C9.78738 13.379 13.7193 9.88395 13.824 9.51705C13.8321 9.48863 13.8015 9.4746 13.7604 9.48705C13.4995 9.58303 8.98112 12.4363 8.47392 12.7566L8.47382 12.7567L8.47241 12.7576C8.43644 12.7685 8.39843 12.7708 8.36141 12.7643Z" fill="#9E9E9E"/>
</g>
</svg>
