<svg width="24" height="24" viewBox="0 0 24 24" fill="none" xmlns="http://www.w3.org/2000/svg">
<g id="Social">
<path id="Vector" d="M19 10.3825C17.5255 10.3862 16.0872 9.90339 14.8882 9.00226V15.287C14.8878 16.451 14.5489 17.5871 13.917 18.5434C13.285 19.4998 12.39 20.2307 11.3517 20.6386C10.3133 21.0465 9.18116 21.1118 8.10653 20.8258C7.0319 20.5398 6.06604 19.9161 5.33809 19.0382C4.61015 18.1603 4.15481 17.07 4.03298 15.9131C3.91115 14.7561 4.12862 13.5877 4.65632 12.564C5.18402 11.5403 5.99679 10.7102 6.98596 10.1846C7.97512 9.65907 9.09353 9.4631 10.1916 9.62293V12.7839C9.68915 12.618 9.14956 12.623 8.64993 12.7982C8.1503 12.9734 7.71618 13.31 7.40957 13.7597C7.10296 14.2095 6.93954 14.7494 6.94264 15.3025C6.94574 15.8556 7.11521 16.3935 7.42685 16.8394C7.73848 17.2853 8.17634 17.6164 8.6779 17.7855C9.17946 17.9545 9.71907 17.9529 10.2197 17.7807C10.7203 17.6085 11.1563 17.2747 11.4654 16.8269C11.7745 16.379 11.9409 15.8401 11.9409 15.287V3.00098H14.8882C14.8862 3.2623 14.907 3.52327 14.9505 3.78059C15.0529 4.355 15.2659 4.90145 15.5763 5.38649C15.8868 5.87153 16.2882 6.28498 16.756 6.60154C17.4217 7.06364 18.202 7.30994 19 7.30976V10.3825Z" fill="white" fill-opacity="0.6"/>
</g>
</svg>
