<svg width="24" height="24" viewBox="0 0 24 24" fill="none" xmlns="http://www.w3.org/2000/svg">
<g id="Social">
<path id="Exclude" fill-rule="evenodd" clip-rule="evenodd" d="M21 12C21 16.9706 16.9706 21 12 21C7.02944 21 3 16.9706 3 12C3 7.02944 7.02944 3 12 3C16.9706 3 21 7.02944 21 12ZM9.11141 12.7634L6.91496 12.0477C6.91496 12.0477 6.65246 11.9412 6.73698 11.6997C6.75438 11.6499 6.78948 11.6075 6.89448 11.5347C7.38116 11.1955 15.9024 8.1327 15.9024 8.1327C15.9024 8.1327 16.143 8.05163 16.2849 8.10555C16.32 8.11642 16.3516 8.13641 16.3765 8.16349C16.4013 8.19057 16.4185 8.22377 16.4263 8.25968C16.4416 8.3231 16.4481 8.38835 16.4454 8.45355C16.4449 8.48812 16.4422 8.52113 16.439 8.56038C16.4369 8.58518 16.4347 8.61246 16.4327 8.6442C16.3808 9.48158 14.8277 15.7312 14.8277 15.7312C14.8277 15.7312 14.7348 16.0969 14.4018 16.1094C14.32 16.112 14.2385 16.0982 14.1622 16.0687C14.0858 16.0391 14.0162 15.9945 13.9575 15.9375C13.6068 15.6359 12.794 15.0591 12.0389 14.5377C11.8105 14.7298 11.3546 15.1242 10.8846 15.5943C10.2172 16.2618 10.303 15.5943 10.303 15.5943L10.508 13.4159L10.5121 13.4183C10.5215 13.396 10.5374 13.378 10.5374 13.378C10.5374 13.378 14.4693 9.88298 14.574 9.51608C14.5821 9.48765 14.5515 9.47363 14.5104 9.48608C14.2495 9.58206 9.73112 12.4354 9.22392 12.7556L9.22382 12.7557L9.22241 12.7566C9.18644 12.7675 9.14843 12.7698 9.11141 12.7634Z" fill="#F8F8F8"/>
</g>
</svg>
