<svg width="18" height="18" viewBox="0 0 18 18" fill="none" xmlns="http://www.w3.org/2000/svg">
<g id="zalo-seeklogo.com 1" clip-path="url(#clip0_1853_4041)">
<path id="Intersect" fill-rule="evenodd" clip-rule="evenodd" d="M11.3673 9.16521C11.4855 9.08024 11.5602 8.94085 11.5602 8.78826C11.568 8.00535 11.572 7.22244 11.5602 6.43953C11.5563 6.12637 11.2668 5.92672 10.9578 5.98936C10.7974 6.02067 10.6997 6.13419 10.6058 6.25555C10.1168 5.82886 9.577 5.80146 9.04501 6.11854C8.9416 6.17911 8.84866 6.2458 8.76584 6.31804C8.33887 6.69452 8.18553 7.22178 8.25094 7.81745C8.32526 8.48292 8.61473 9.02704 9.31101 9.25017C9.7452 9.39109 10.1481 9.3402 10.5041 9.05053C10.5979 8.97615 10.6253 8.99181 10.6918 9.07402C10.8209 9.23843 11.0439 9.30106 11.2395 9.22668C11.2862 9.21266 11.3291 9.19173 11.3673 9.16521ZM13.3166 7.70784C13.3019 8.62499 14.0121 9.33241 14.9418 9.33392C15.0029 9.33391 15.0649 9.33083 15.1277 9.32455C16.0626 9.2306 16.6689 8.52989 16.6376 7.53951C16.607 6.58406 15.9128 5.92338 14.9517 5.92175C14.9296 5.92176 14.9075 5.92211 14.8852 5.92281C14.0306 5.94775 13.4062 6.57272 13.3246 7.44344C13.3165 7.5293 13.3138 7.61754 13.3166 7.70784ZM12.974 5.54917C12.9738 5.39693 12.9733 5.2448 12.9723 5.09293C12.9723 4.77976 12.7728 4.58403 12.4756 4.58795C12.2137 4.58795 12.0319 4.7481 11.9967 5.00177C11.993 5.02853 11.9909 5.05633 11.9905 5.08509C11.9879 5.2076 11.9888 5.32838 11.9896 5.44973C11.9901 5.51062 11.9905 5.57166 11.9905 5.63313V8.74519C11.9905 8.74805 11.9905 8.75091 11.9906 8.75376C11.994 8.99285 12.1415 9.19988 12.3347 9.25017C12.3348 9.25018 12.3348 9.25019 12.3348 9.2502C12.5894 9.32028 12.8509 9.18149 12.9388 8.93888C12.9441 8.92427 12.9488 8.90929 12.9528 8.89395C12.9645 8.84697 12.9723 8.8 12.9684 8.74911C12.9743 8.29403 12.9736 7.83896 12.9728 7.38388C12.9726 7.2322 12.9723 7.08052 12.9723 6.92884C12.9723 6.72384 12.9728 6.51927 12.9732 6.31484C12.9734 6.20561 12.9737 6.09643 12.9738 5.98724C12.9741 5.84126 12.9742 5.69527 12.974 5.54917ZM9.38533 8.15801C9.28363 8.021 9.22886 7.85659 9.22104 7.68435C9.21713 7.1324 9.51833 6.79967 9.94861 6.82707C10.1325 6.83098 10.3046 6.92102 10.4141 7.07369C10.6332 7.37119 10.6332 7.86051 10.4141 8.15801C10.375 8.2089 10.332 8.25196 10.285 8.28719C9.99946 8.49858 9.59656 8.43986 9.38533 8.15801ZM15.3663 8.27937C15.0846 8.49858 14.6817 8.44378 14.4666 8.16193C14.3493 8.00143 14.2906 7.80962 14.2984 7.61389C14.2984 7.12457 14.5957 6.80358 15.0181 6.82707C15.202 6.83098 15.3741 6.92493 15.4836 7.07369C15.7066 7.37119 15.7066 7.87225 15.4797 8.16976C15.4445 8.2089 15.4093 8.24805 15.3663 8.27937Z" fill="#F8F8F8"/>
<path id="Vector" d="M5.45799 17.0753C4.3901 17.0753 3.3183 17.1106 2.25041 17.0714C0.986937 17.0205 0.020752 15.9597 0.020752 14.6953C0.020752 10.6124 0.0285753 6.52955 0.020752 2.44276C0.020752 1.04527 1.11211 0.0705466 2.36776 0.0353157C3.68209 8.4823e-05 5.00032 0.0274866 6.31856 0.0274866C6.34203 0.0274866 6.37332 0.015743 6.38506 0.0548885C6.37723 0.12535 6.30682 0.133179 6.2638 0.160581C5.48928 0.614669 4.78127 1.15879 4.18669 1.83209C3.20486 2.94382 2.52423 4.21997 2.29344 5.70358C1.88662 8.32241 2.70417 10.5459 4.55439 12.4014C4.88297 12.7341 4.926 12.9925 4.66392 13.4387C4.34707 13.975 3.86593 14.3391 3.3535 14.6718C3.29874 14.7031 3.24398 14.7423 3.18921 14.7775C3.10707 14.848 3.15792 14.8832 3.22833 14.9145C3.24398 14.9497 3.26354 14.9811 3.28701 15.0124C3.73685 15.4117 4.16322 15.8383 4.60524 16.2455C4.81256 16.4373 5.01988 16.6369 5.21938 16.8365C5.30152 16.9109 5.43843 16.9344 5.45799 17.0753Z" fill="#F8F8F8"/>
<path id="Vector_2" d="M5.45793 17.0752C5.43837 16.9382 5.30146 16.9147 5.21932 16.8325C5.01982 16.6289 4.8125 16.4332 4.60518 16.2414C4.16316 15.8343 3.73679 15.4076 3.28695 15.0083C3.26348 14.977 3.24392 14.9457 3.22827 14.9104C4.22575 15.1062 5.19976 14.9731 6.15812 14.6795C6.48279 14.5816 6.80746 14.4838 7.13604 14.4016C7.35901 14.3428 7.59371 14.3546 7.80885 14.4329C10.2889 15.2862 12.7376 15.2079 15.1472 14.151C16.129 13.7165 17.0248 13.1058 17.7836 12.3425C17.8228 12.3034 17.8501 12.2446 17.9205 12.2407C17.9558 12.2955 17.9362 12.3542 17.9362 12.413V14.703C17.944 16.0104 16.8957 17.0752 15.5892 17.0869H15.5696C14.1614 17.0948 12.7532 17.0869 11.345 17.0869H5.69263C5.6144 17.0791 5.53616 17.0752 5.45793 17.0752Z" fill="#F8F8F8"/>
<path id="Vector_3" d="M6.06823 8.31455C6.6589 8.31455 7.21436 8.31063 7.7659 8.31455C8.07493 8.31846 8.24313 8.44764 8.27442 8.69426C8.30963 9.00351 8.12969 9.21098 7.79328 9.21489C7.15959 9.22272 6.52981 9.21881 5.89612 9.21881C5.71227 9.21881 5.53233 9.22664 5.34848 9.21489C5.12161 9.20315 4.89864 9.15617 4.78911 8.9213C4.67959 8.68643 4.75782 8.47504 4.90646 8.28323C5.50886 7.51598 6.11517 6.74481 6.72148 5.97756C6.75669 5.93059 6.79189 5.88361 6.8271 5.84055C6.78798 5.77401 6.73322 5.80532 6.68628 5.80141C6.26382 5.79749 5.83744 5.80141 5.41498 5.79749C5.31719 5.79749 5.2194 5.78575 5.12552 5.76618C4.90255 5.71529 4.76564 5.49216 4.8165 5.27294C4.8517 5.12419 4.96905 5.00284 5.11769 4.96761C5.21158 4.94412 5.30937 4.93238 5.40716 4.93238C6.10344 4.92846 6.80363 4.92846 7.49991 4.93238C7.62508 4.92846 7.74635 4.94412 7.86761 4.97544C8.1336 5.06547 8.24704 5.31209 8.14142 5.57045C8.04754 5.79358 7.8989 5.98539 7.75026 6.17721C7.23783 6.83093 6.7254 7.48075 6.21297 8.12665C6.16994 8.17754 6.13082 8.22843 6.06823 8.31455Z" fill="#F8F8F8"/>
<path id="Vector (Stroke)" fill-rule="evenodd" clip-rule="evenodd" d="M2.58293 0.0782909C1.20024 0.0782909 0.0794543 1.1999 0.0794543 2.5836V14.4447C0.0794543 15.8284 1.20024 16.95 2.58293 16.95H15.4172C16.7998 16.95 17.9206 15.8284 17.9206 14.4447V2.5836C17.9206 1.1999 16.7998 0.0782909 15.4172 0.0782909H2.58293ZM0.0012207 2.5836C0.0012207 1.15666 1.15703 0 2.58293 0H15.4172C16.8431 0 17.9989 1.15666 17.9989 2.5836V14.4447C17.9989 15.8716 16.8431 17.0283 15.4172 17.0283H2.58293C1.15703 17.0283 0.0012207 15.8716 0.0012207 14.4447V2.5836Z" fill="#F8F8F8"/>
</g>
<defs>
<clipPath id="clip0_1853_4041">
<rect width="18" height="17.0909" fill="white"/>
</clipPath>
</defs>
</svg>
