<svg width="24" height="24" viewBox="0 0 24 24" fill="none" xmlns="http://www.w3.org/2000/svg">
<g id="Icon / 24&#195;&#151;24 / Line / General / Eye" clip-path="url(#clip0_1_1071)">
<path id="Exclude" fill-rule="evenodd" clip-rule="evenodd" d="M2 12C3.60014 7.90264 7.33603 5 12 5C16.664 5 20.3999 7.90264 22 12C20.3999 16.0974 16.664 19 12 19C7.33603 19 3.60014 16.0974 2 12ZM9.75 12C9.75 10.7574 10.7574 9.75 12 9.75C13.2426 9.75 14.25 10.7574 14.25 12C14.25 13.2426 13.2426 14.25 12 14.25C10.7574 14.25 9.75 13.2426 9.75 12ZM12 8.25C9.92893 8.25 8.25 9.92893 8.25 12C8.25 14.0711 9.92893 15.75 12 15.75C14.0711 15.75 15.75 14.0711 15.75 12C15.75 9.92893 14.0711 8.25 12 8.25Z" fill="#808089"/>
</g>
<defs>
<clipPath id="clip0_1_1071">
<rect width="24" height="24" fill="white"/>
</clipPath>
</defs>
</svg>
