<svg width="36" height="36" viewBox="0 0 36 36" fill="none" xmlns="http://www.w3.org/2000/svg">
<g id="Social">
<path id="Vector" d="M29.7636 15.7497C29.9167 16.553 30 17.3929 30 18.2694C30 25.1252 25.3177 30 18.2457 30C16.6374 30.0005 15.0448 29.6904 13.5589 29.0875C12.0729 28.4846 10.7228 27.6007 9.58558 26.4864C8.44837 25.372 7.54638 24.0489 6.93115 22.5928C6.31592 21.1366 5.99951 19.576 6 18C5.99951 16.424 6.31592 14.8634 6.93115 13.4072C7.54638 11.9511 8.44837 10.628 9.58558 9.51365C10.7228 8.39925 12.0729 7.51535 13.5589 6.91247C15.0448 6.30958 16.6374 5.99952 18.2457 6C21.5522 6 24.315 7.1922 26.4348 9.128L22.9827 12.5108V12.5022C21.6977 11.3027 20.0669 10.6871 18.2457 10.6871C14.2053 10.6871 10.9212 14.0321 10.9212 17.9927C10.9212 21.9521 14.2053 25.3043 18.2457 25.3043C21.9117 25.3043 24.4071 23.2503 24.9196 20.4295H18.2457V15.7497H29.7649H29.7636Z" fill="#F8F8F8"/>
</g>
</svg>
