<svg width="20" height="20" viewBox="0 0 20 20" fill="none" xmlns="http://www.w3.org/2000/svg">
<g id="Icon Frame">
<circle id="Ellipse 14" cx="10" cy="10" r="9" stroke="#0989FF" stroke-width="1.5" stroke-linecap="round" stroke-linejoin="round"/>
<path id="Ellipse 81" d="M10.9141 13.8285C10.9141 14.3808 10.4663 14.8285 9.91406 14.8285C9.36178 14.8285 8.91406 14.3808 8.91406 13.8285C8.91406 13.2762 9.36178 12.8285 9.91406 12.8285C10.4663 12.8285 10.9141 13.2762 10.9141 13.8285Z" fill="#0989FF"/>
<path id="Ellipse 82" d="M8.49985 6.41421C8.88948 6.02459 9.39987 5.82933 9.91053 5.82843C10.4236 5.82753 10.9369 6.02279 11.3283 6.41421C11.7188 6.80474 11.9141 7.31658 11.9141 7.82843C11.9141 8.34027 11.7188 8.85212 11.3283 9.24264C10.9369 9.63406 10.4236 9.82932 9.91053 9.82842L9.91406 10.8284" stroke="#0989FF" stroke-width="1.5" stroke-linecap="round" stroke-linejoin="round"/>
</g>
</svg>
