<svg width="16" height="16" viewBox="0 0 16 16" fill="none" xmlns="http://www.w3.org/2000/svg">
<g id="Icon Frame">
<path id="Exclude" fill-rule="evenodd" clip-rule="evenodd" d="M8 14C11.3137 14 14 11.3137 14 8C14 4.68629 11.3137 2 8 2C4.68629 2 2 4.68629 2 8C2 11.3137 4.68629 14 8 14ZM7.83333 5.33333C7.83333 5.05719 7.60948 4.83333 7.33333 4.83333C7.05719 4.83333 6.83333 5.05719 6.83333 5.33333V8.66667C6.83333 8.94281 7.05719 9.16667 7.33333 9.16667H10.6667C10.9428 9.16667 11.1667 8.94281 11.1667 8.66667C11.1667 8.39052 10.9428 8.16667 10.6667 8.16667H7.83333V5.33333Z" fill="#9E9E9E"/>
</g>
</svg>
