<svg width="20" height="20" viewBox="0 0 20 20" fill="none" xmlns="http://www.w3.org/2000/svg">
<g id="Warning">
<path id="Exclude" fill-rule="evenodd" clip-rule="evenodd" d="M17.5 10C17.5 14.1421 14.1421 17.5 10 17.5C5.85786 17.5 2.5 14.1421 2.5 10C2.5 5.85786 5.85786 2.5 10 2.5C14.1421 2.5 17.5 5.85786 17.5 10ZM10.8333 13.3334C10.8333 13.7936 10.4602 14.1667 10 14.1667C9.53976 14.1667 9.16667 13.7936 9.16667 13.3334C9.16667 12.8731 9.53976 12.5001 10 12.5001C10.4602 12.5001 10.8333 12.8731 10.8333 13.3334ZM9.16667 10.0001C9.16667 10.4603 9.53976 10.8334 10 10.8334C10.4602 10.8334 10.8333 10.4603 10.8333 10.0001V6.66672C10.8333 6.20648 10.4602 5.83338 10 5.83338C9.53976 5.83338 9.16667 6.20648 9.16667 6.66672L9.16667 10.0001Z" fill="#B5AB9A"/>
</g>
</svg>
