<svg width="20" height="20" viewBox="0 0 20 20" fill="none" xmlns="http://www.w3.org/2000/svg">
<g id="Icon Frame">
<path id="Ellipse 36" d="M6.66602 8.33333V5.83333C6.66602 3.99238 8.1584 2.5 9.99935 2.5C11.8403 2.5 13.3327 3.99238 13.3327 5.83333V8.33333" stroke="#9E9E9E" stroke-width="2" stroke-linecap="round"/>
<g id="Exclude">
<path fill-rule="evenodd" clip-rule="evenodd" d="M15.8327 8.33337H4.16602V15.5C4.16602 16.6046 5.06145 17.5 6.16602 17.5H13.8327C14.9373 17.5 15.8327 16.6046 15.8327 15.5V8.33337ZM12.0827 10.8334C10.9321 10.8334 9.99935 11.7661 9.99935 12.9167C9.99935 14.0673 10.9321 15 12.0827 15C13.2333 15 14.166 14.0673 14.166 12.9167C14.166 11.7661 13.2333 10.8334 12.0827 10.8334Z" fill="#9E9E9E"/>
<path d="M4.16602 8.33337V7.83337H3.66602V8.33337H4.16602ZM15.8327 8.33337H16.3327V7.83337H15.8327V8.33337ZM9.99935 12.9167H9.49935H9.99935ZM12.0827 10.8334V10.3334V10.8334ZM12.0827 15V15.5V15ZM4.16602 8.83337H15.8327V7.83337H4.16602V8.83337ZM4.66602 15.5V8.33337H3.66602V15.5H4.66602ZM6.16602 17C5.33759 17 4.66602 16.3285 4.66602 15.5H3.66602C3.66602 16.8808 4.78531 18 6.16602 18V17ZM13.8327 17H6.16602V18H13.8327V17ZM15.3327 15.5C15.3327 16.3285 14.6611 17 13.8327 17V18C15.2134 18 16.3327 16.8808 16.3327 15.5H15.3327ZM15.3327 8.33337V15.5H16.3327V8.33337H15.3327ZM10.4993 12.9167C10.4993 12.0423 11.2082 11.3334 12.0827 11.3334V10.3334C10.6559 10.3334 9.49935 11.49 9.49935 12.9167H10.4993ZM12.0827 14.5C11.2082 14.5 10.4993 13.7912 10.4993 12.9167H9.49935C9.49935 14.3434 10.6559 15.5 12.0827 15.5V14.5ZM13.666 12.9167C13.666 13.7912 12.9571 14.5 12.0827 14.5V15.5C13.5094 15.5 14.666 14.3434 14.666 12.9167H13.666ZM12.0827 11.3334C12.9571 11.3334 13.666 12.0423 13.666 12.9167H14.666C14.666 11.49 13.5094 10.3334 12.0827 10.3334V11.3334Z" fill="#9E9E9E"/>
</g>
</g>
</svg>
