<svg width="20" height="20" viewBox="0 0 20 20" fill="none" xmlns="http://www.w3.org/2000/svg">
<g id="Money" clip-path="url(#clip0_1944_215)">
<path id="Exclude" fill-rule="evenodd" clip-rule="evenodd" d="M11.0536 1.73362C9.24539 1.50296 7.41138 1.87157 5.83268 2.78298C4.60548 3.49145 3.57921 4.50117 2.85086 5.71668C2.12251 6.9322 1.71615 8.31336 1.67018 9.72964L1.66602 9.99965L1.67018 10.2696C1.72917 12.0916 2.38395 13.8439 3.53416 15.2581C4.68437 16.6723 6.26657 17.6704 8.03828 18.0993C9.81 18.5283 11.6735 18.3644 13.3432 17.6329C15.0129 16.9014 16.3967 15.6426 17.2825 14.0494C18.1683 12.4562 18.5072 10.6165 18.2474 8.8122C17.9876 7.00791 17.1433 5.33859 15.844 4.06005C14.5446 2.78151 12.8619 1.96429 11.0536 1.73362ZM9.97852 3.66665C10.2964 3.66665 10.5542 3.92438 10.5542 4.2423V5.96928H11.2066C11.2143 5.96928 11.2221 5.96943 11.2299 5.96975C11.704 5.98894 12.1645 6.14071 12.5519 6.40975C12.9397 6.67905 13.2385 7.05514 13.4033 7.49368C13.5152 7.79127 13.3646 8.12321 13.0671 8.23509C12.7695 8.34697 12.4375 8.19641 12.3256 7.89882C12.2461 7.68715 12.0984 7.49648 11.8952 7.35541C11.6945 7.21601 11.4506 7.13295 11.1939 7.12059H8.75045C8.403 7.12059 8.07667 7.25033 7.8416 7.47072C7.60778 7.68992 7.484 7.97899 7.484 8.27191C7.484 8.56483 7.60778 8.8539 7.8416 9.0731C8.07667 9.29349 8.403 9.42323 8.75045 9.42323H11.2066C11.8363 9.42323 12.447 9.65738 12.9029 10.0847C13.36 10.5133 13.6243 11.1027 13.6243 11.7259C13.6243 12.349 13.36 12.9384 12.9029 13.367C12.447 13.7943 11.8363 14.0285 11.2066 14.0285H10.5542V15.7555C10.5542 16.0734 10.2964 16.3311 9.97852 16.3311C9.66059 16.3311 9.40286 16.0734 9.40286 15.7555V14.0285H8.75045C8.74268 14.0285 8.73492 14.0283 8.72716 14.028C8.25301 14.0088 7.79251 13.8571 7.40508 13.588C7.0173 13.3187 6.71858 12.9426 6.55371 12.5041C6.44184 12.2065 6.59239 11.8746 6.88998 11.7627C7.18757 11.6508 7.51951 11.8014 7.63139 12.0989C7.71097 12.3106 7.85865 12.5013 8.06179 12.6424C8.26252 12.7818 8.50644 12.8648 8.76309 12.8772H11.2066C11.554 12.8772 11.8804 12.7474 12.1154 12.527C12.3493 12.3078 12.473 12.0188 12.473 11.7259C12.473 11.4329 12.3493 11.1439 12.1154 10.9247C11.8804 10.7043 11.554 10.5745 11.2066 10.5745H8.75045C8.12077 10.5745 7.51001 10.3404 7.05416 9.91303C6.59706 9.48449 6.33268 8.89503 6.33268 8.27191C6.33268 7.64879 6.59706 7.05933 7.05416 6.63079C7.51001 6.20343 8.12077 5.96928 8.75045 5.96928H9.40286V4.2423C9.40286 3.92438 9.66059 3.66665 9.97852 3.66665Z" fill="#9E9E9E"/>
</g>
<defs>
<clipPath id="clip0_1944_215">
<rect width="20" height="20" fill="white"/>
</clipPath>
</defs>
</svg>
