<svg width="20" height="20" viewBox="0 0 20 20" fill="none" xmlns="http://www.w3.org/2000/svg">
<g id="Icon Frame">
<path id="Exclude" fill-rule="evenodd" clip-rule="evenodd" d="M10 17.5C14.1421 17.5 17.5 14.1421 17.5 10C17.5 5.85786 14.1421 2.5 10 2.5C5.85786 2.5 2.5 5.85786 2.5 10C2.5 14.1421 5.85786 17.5 10 17.5ZM9.79167 6.66667C9.79167 6.32149 9.51184 6.04167 9.16667 6.04167C8.82149 6.04167 8.54167 6.32149 8.54167 6.66667V10.8333C8.54167 11.1785 8.82149 11.4583 9.16667 11.4583H13.3333C13.6785 11.4583 13.9583 11.1785 13.9583 10.8333C13.9583 10.4882 13.6785 10.2083 13.3333 10.2083H9.79167V6.66667Z" fill="#9E9E9E"/>
</g>
</svg>
