<svg width="17" height="17" viewBox="0 0 17 17" fill="none" xmlns="http://www.w3.org/2000/svg">
<g id="Group 1">
<path id="Vector" d="M4 4.66699H3.16667C2.72464 4.66699 2.30072 4.84259 1.98816 5.15515C1.67559 5.46771 1.5 5.89163 1.5 6.33366V13.8337C1.5 14.2757 1.67559 14.6996 1.98816 15.0122C2.30072 15.3247 2.72464 15.5003 3.16667 15.5003H10.6667C11.1087 15.5003 11.5326 15.3247 11.8452 15.0122C12.1577 14.6996 12.3333 14.2757 12.3333 13.8337V13.0003" stroke="white" stroke-width="1.25" stroke-linecap="round" stroke-linejoin="round"/>
<path id="Vector_2" d="M15.1535 4.32109C15.4817 3.99288 15.6661 3.54774 15.6661 3.08359C15.6661 2.61943 15.4817 2.17429 15.1535 1.84609C14.8253 1.51788 14.3802 1.3335 13.916 1.3335C13.4519 1.3335 13.0067 1.51788 12.6785 1.84609L5.66602 8.83359V11.3336H8.16602L15.1535 4.32109Z" stroke="white" stroke-width="1.25" stroke-linecap="round" stroke-linejoin="round"/>
<path id="Vector_3" d="M11.5 3L14 5.5" stroke="white" stroke-width="1.25" stroke-linecap="round" stroke-linejoin="round"/>
</g>
</svg>
