<svg width="20" height="20" viewBox="0 0 20 20" fill="none" xmlns="http://www.w3.org/2000/svg">
<g id="Dollar" clip-path="url(#clip0_2095_4361)">
<path id="Vector" d="M13.9154 6.66667C13.7495 6.19603 13.4466 5.7858 13.0456 5.48878C12.6446 5.19176 12.1639 5.02153 11.6654 5H8.33203C7.66899 5 7.03311 5.26339 6.56426 5.73223C6.09542 6.20107 5.83203 6.83696 5.83203 7.5C5.83203 8.16304 6.09542 8.79893 6.56426 9.26777C7.03311 9.73661 7.66899 10 8.33203 10H11.6654C12.3284 10 12.9643 10.2634 13.4331 10.7322C13.902 11.2011 14.1654 11.837 14.1654 12.5C14.1654 13.163 13.902 13.7989 13.4331 14.2678C12.9643 14.7366 12.3284 15 11.6654 15H8.33203C7.83349 14.9785 7.35279 14.8082 6.95181 14.5112C6.55082 14.2142 6.2479 13.804 6.08203 13.3333" stroke="#E4E4E4" stroke-width="1.5" stroke-linecap="round" stroke-linejoin="round"/>
<path id="Vector_2" d="M10 2.5V5M10 15V17.5" stroke="#E4E4E4" stroke-width="1.5" stroke-linecap="round" stroke-linejoin="round"/>
</g>
<defs>
<clipPath id="clip0_2095_4361">
<rect width="20" height="20" fill="white"/>
</clipPath>
</defs>
</svg>
