<svg width="24" height="24" viewBox="0 0 24 24" fill="none" xmlns="http://www.w3.org/2000/svg">
<g id="Smile">
<path id="Vector" d="M3 12.0002C3 13.1821 3.23279 14.3525 3.68508 15.4444C4.13738 16.5363 4.80031 17.5285 5.63604 18.3642C6.47177 19.1999 7.46392 19.8629 8.55585 20.3152C9.64778 20.7675 10.8181 21.0002 12 21.0002C13.1819 21.0002 14.3522 20.7675 15.4442 20.3152C16.5361 19.8629 17.5282 19.1999 18.364 18.3642C19.1997 17.5285 19.8626 16.5363 20.3149 15.4444C20.7672 14.3525 21 13.1821 21 12.0002C21 10.8183 20.7672 9.64802 20.3149 8.55609C19.8626 7.46416 19.1997 6.47201 18.364 5.63628C17.5282 4.80056 16.5361 4.13762 15.4442 3.68533C14.3522 3.23304 13.1819 3.00024 12 3.00024C10.8181 3.00024 9.64778 3.23304 8.55585 3.68533C7.46392 4.13762 6.47177 4.80056 5.63604 5.63628C4.80031 6.47201 4.13738 7.46416 3.68508 8.55609C3.23279 9.64802 3 10.8183 3 12.0002Z" stroke="white" stroke-width="1.5" stroke-linecap="round" stroke-linejoin="round"/>
<path id="Vector_2" d="M9 9.00024H9.01" stroke="white" stroke-width="1.5" stroke-linecap="round" stroke-linejoin="round"/>
<path id="Vector_3" d="M15 9.00024H15.01" stroke="white" stroke-width="1.5" stroke-linecap="round" stroke-linejoin="round"/>
<path id="Vector_4" d="M8 13.0002C8 14.0611 8.42143 15.0785 9.17157 15.8287C9.92172 16.5788 10.9391 17.0002 12 17.0002C13.0609 17.0002 14.0783 16.5788 14.8284 15.8287C15.5786 15.0785 16 14.0611 16 13.0002H8Z" stroke="white" stroke-width="1.5" stroke-linecap="round" stroke-linejoin="round"/>
</g>
</svg>
