<svg width="24" height="24" viewBox="0 0 24 24" fill="none" xmlns="http://www.w3.org/2000/svg">
<g id="Link" clip-path="url(#clip0_2113_8181)">
<path id="Vector" d="M9 15.0002L15 9.00024" stroke="#0989FF" stroke-width="1.5" stroke-linecap="round" stroke-linejoin="round"/>
<path id="Vector_2" d="M11 6.00055L11.463 5.46455C12.4008 4.52688 13.6727 4.00015 14.9989 4.00024C16.325 4.00034 17.5968 4.52724 18.5345 5.46505C19.4722 6.40286 19.9989 7.67474 19.9988 9.0009C19.9987 10.3271 19.4718 11.5989 18.534 12.5366L18 13.0006" stroke="#0989FF" stroke-width="1.5" stroke-linecap="round" stroke-linejoin="round"/>
<path id="Vector_3" d="M13.0001 18.0002L12.6031 18.5342C11.6544 19.4724 10.3739 19.9986 9.03964 19.9986C7.70535 19.9986 6.42489 19.4724 5.47614 18.5342C5.0085 18.0718 4.63724 17.5213 4.38385 16.9144C4.13047 16.3075 4 15.6564 4 14.9987C4 14.3411 4.13047 13.69 4.38385 13.0831C4.63724 12.4762 5.0085 11.9256 5.47614 11.4632L6.00014 11.0002" stroke="#0989FF" stroke-width="1.5" stroke-linecap="round" stroke-linejoin="round"/>
</g>
<defs>
<clipPath id="clip0_2113_8181">
<rect width="24" height="24" fill="white" transform="translate(0 0.000244141)"/>
</clipPath>
</defs>
</svg>
