<svg width="20" height="20" viewBox="0 0 20 20" fill="none" xmlns="http://www.w3.org/2000/svg">
<g id="Money" clip-path="url(#clip0_2095_6242)">
<path id="Vector" d="M5.83464 2.78298C7.41334 1.87157 9.24734 1.50296 11.0556 1.73362C12.8638 1.96429 14.5466 2.78151 15.8459 4.06005C17.1453 5.33859 17.9895 7.00791 18.2494 8.8122C18.5092 10.6165 18.1702 12.4562 17.2844 14.0494C16.3986 15.6426 15.0148 16.9014 13.3451 17.6329C11.6754 18.3644 9.81195 18.5283 8.04024 18.0993C6.26852 17.6704 4.68632 16.6723 3.53611 15.2581C2.3859 13.8439 1.73113 12.0916 1.67214 10.2696L1.66797 9.99964L1.67214 9.72964C1.7181 8.31336 2.12447 6.9322 2.85281 5.71668C3.58116 4.50117 4.60743 3.49145 5.83464 2.78298Z" stroke="#E4E4E4" stroke-width="1.5" stroke-linecap="round" stroke-linejoin="round"/>
<path id="Vector_2" d="M13.1346 7.22226C13.0019 6.83007 12.7596 6.48821 12.4388 6.24069C12.118 5.99317 11.7335 5.85131 11.3346 5.83337H8.66797C8.13754 5.83337 7.62883 6.05287 7.25376 6.44357C6.87868 6.83427 6.66797 7.36417 6.66797 7.91671C6.66797 8.46924 6.87868 8.99915 7.25376 9.38985C7.62883 9.78055 8.13754 10 8.66797 10H11.3346C11.8651 10 12.3738 10.2195 12.7488 10.6102C13.1239 11.0009 13.3346 11.5308 13.3346 12.0834C13.3346 12.6359 13.1239 13.1658 12.7488 13.5565C12.3738 13.9472 11.8651 14.1667 11.3346 14.1667H8.66797C8.26913 14.1488 7.88458 14.0069 7.56379 13.7594C7.243 13.5119 7.00067 13.17 6.86797 12.7778" stroke="#E4E4E4" stroke-width="1.5" stroke-linecap="round" stroke-linejoin="round"/>
<path id="Vector_3" d="M10 4.16663V5.83329M10 14.1666V15.8333" stroke="#E4E4E4" stroke-width="1.5" stroke-linecap="round" stroke-linejoin="round"/>
</g>
<defs>
<clipPath id="clip0_2095_6242">
<rect width="20" height="20" fill="white"/>
</clipPath>
</defs>
</svg>
