<svg width="24" height="25" viewBox="0 0 24 25" fill="none" xmlns="http://www.w3.org/2000/svg">
<g id="Phone" clip-path="url(#clip0_2113_8106)">
<path id="Vector" d="M11.5 21.5H8C7.46957 21.5 6.96086 21.2893 6.58579 20.9142C6.21071 20.5391 6 20.0304 6 19.5V5.5C6 4.96957 6.21071 4.46086 6.58579 4.08579C6.96086 3.71071 7.46957 3.5 8 3.5H16C16.5304 3.5 17.0391 3.71071 17.4142 4.08579C17.7893 4.46086 18 4.96957 18 5.5V15" stroke="#009571" stroke-width="1.5" stroke-linecap="round" stroke-linejoin="round"/>
<path id="Vector_2" d="M11 4.5H13" stroke="#009571" stroke-width="1.5" stroke-linecap="round" stroke-linejoin="round"/>
<path id="Vector_3" d="M12 17.5V17.51" stroke="#009571" stroke-width="1.5" stroke-linecap="round" stroke-linejoin="round"/>
<path id="Vector_4" d="M15 19.5L17 21.5L21 17.5" stroke="#009571" stroke-width="1.5" stroke-linecap="round" stroke-linejoin="round"/>
</g>
<defs>
<clipPath id="clip0_2113_8106">
<rect width="24" height="24" fill="white" transform="translate(0 0.5)"/>
</clipPath>
</defs>
</svg>
