<svg width="24" height="24" viewBox="0 0 24 24" fill="none" xmlns="http://www.w3.org/2000/svg">
<g id="Photo">
<path id="Vector" d="M15 8.00024H15.01" stroke="white" stroke-width="1.5" stroke-linecap="round" stroke-linejoin="round"/>
<path id="Vector_2" d="M3 6.00024C3 5.20459 3.31607 4.44153 3.87868 3.87892C4.44129 3.31631 5.20435 3.00024 6 3.00024H18C18.7956 3.00024 19.5587 3.31631 20.1213 3.87892C20.6839 4.44153 21 5.20459 21 6.00024V18.0002C21 18.7959 20.6839 19.559 20.1213 20.1216C19.5587 20.6842 18.7956 21.0002 18 21.0002H6C5.20435 21.0002 4.44129 20.6842 3.87868 20.1216C3.31607 19.559 3 18.7959 3 18.0002V6.00024Z" stroke="white" stroke-width="1.5" stroke-linecap="round" stroke-linejoin="round"/>
<path id="Vector_3" d="M3 16.0003L8 11.0003C8.928 10.1073 10.072 10.1073 11 11.0003L16 16.0003" stroke="white" stroke-width="1.5" stroke-linecap="round" stroke-linejoin="round"/>
<path id="Vector_4" d="M14 14.0003L15 13.0003C15.928 12.1073 17.072 12.1073 18 13.0003L21 16.0003" stroke="white" stroke-width="1.5" stroke-linecap="round" stroke-linejoin="round"/>
</g>
</svg>
