<svg width="20" height="20" viewBox="0 0 20 20" fill="none" xmlns="http://www.w3.org/2000/svg">
<g id="Send" clip-path="url(#clip0_2110_8141)">
<path id="Vector" d="M8.33203 11.6669L17.4987 2.50024" stroke="white" stroke-width="1.5" stroke-linecap="round" stroke-linejoin="round"/>
<path id="Vector_2" d="M17.5018 2.50024L12.0851 17.5002C12.0485 17.58 11.9898 17.6476 11.916 17.695C11.8421 17.7424 11.7562 17.7676 11.6684 17.7676C11.5807 17.7676 11.4948 17.7424 11.4209 17.695C11.347 17.6476 11.2883 17.58 11.2518 17.5002L8.3351 11.6669L2.50177 8.75024C2.42198 8.71368 2.35437 8.65498 2.30697 8.58112C2.25957 8.50726 2.23438 8.42134 2.23438 8.33358C2.23437 8.24581 2.25957 8.1599 2.30697 8.08603C2.35437 8.01217 2.42198 7.95347 2.50177 7.91691L17.5018 2.50024Z" stroke="white" stroke-width="1.5" stroke-linecap="round" stroke-linejoin="round"/>
</g>
<defs>
<clipPath id="clip0_2110_8141">
<rect width="20" height="20" fill="white" transform="translate(0 0.000244141)"/>
</clipPath>
</defs>
</svg>
