<svg width="24" height="24" viewBox="0 0 24 24" fill="none" xmlns="http://www.w3.org/2000/svg">
<g id="Icon / 24&#195;&#151;24 / Line / General / Star">
<path id="Star 1" d="M11.546 2.98433C11.7247 2.5969 12.2754 2.5969 12.4541 2.98433L14.8494 8.17735C14.9222 8.33526 15.0718 8.44398 15.2445 8.46445L20.9236 9.13779C21.3473 9.18803 21.5174 9.71172 21.2042 10.0014L17.0055 13.8842C16.8778 14.0023 16.8207 14.1782 16.8546 14.3487L17.9691 19.9579C18.0523 20.3764 17.6068 20.7001 17.2345 20.4917L12.2443 17.6983C12.0925 17.6134 11.9075 17.6134 11.7558 17.6983L6.76558 20.4917C6.39328 20.7001 5.9478 20.3764 6.03095 19.9579L7.14548 14.3487C7.17937 14.1782 7.12222 14.0023 6.99455 13.8842L2.79588 10.0014C2.48263 9.71172 2.65279 9.18803 3.07649 9.13779L8.75554 8.46445C8.92822 8.44398 9.07786 8.33526 9.15069 8.17735L11.546 2.98433Z" stroke="#808089" stroke-width="1.5" stroke-linecap="round" stroke-linejoin="round"/>
</g>
</svg>
