<svg width="16" height="16" viewBox="0 0 16 16" fill="none" xmlns="http://www.w3.org/2000/svg">
<g id="Icon / 24&#195;&#151;24 / Line / General / Eye" clip-path="url(#clip0_1913_3875)">
<path id="Exclude" fill-rule="evenodd" clip-rule="evenodd" d="M1.33398 8.00004C2.40074 5.26847 4.89134 3.33337 8.00065 3.33337C11.11 3.33337 13.6006 5.26847 14.6673 8.00004C13.6006 10.7316 11.11 12.6667 8.00065 12.6667C4.89134 12.6667 2.40074 10.7316 1.33398 8.00004ZM6.50065 8.00004C6.50065 7.17161 7.17222 6.50004 8.00065 6.50004C8.82908 6.50004 9.50065 7.17161 9.50065 8.00004C9.50065 8.82847 8.82908 9.50004 8.00065 9.50004C7.17222 9.50004 6.50065 8.82847 6.50065 8.00004ZM8.00065 5.50004C6.61994 5.50004 5.50065 6.61933 5.50065 8.00004C5.50065 9.38075 6.61994 10.5 8.00065 10.5C9.38136 10.5 10.5007 9.38075 10.5007 8.00004C10.5007 6.61933 9.38136 5.50004 8.00065 5.50004Z" fill="#9E9E9E"/>
</g>
<defs>
<clipPath id="clip0_1913_3875">
<rect width="16" height="16" fill="white"/>
</clipPath>
</defs>
</svg>
