<svg width="16" height="16" viewBox="0 0 16 16" fill="none" xmlns="http://www.w3.org/2000/svg">
<g id="Status" clip-path="url(#clip0_2000_16377)">
<path id="Vector" d="M11.334 2.22664C12.3395 2.80721 13.1759 3.64032 13.7605 4.6435C14.3451 5.64669 14.6576 6.78515 14.6669 7.9462C14.6763 9.10724 14.3823 10.2506 13.814 11.2631C13.2457 12.2756 12.4228 13.1221 11.4268 13.7188C10.4308 14.3156 9.29623 14.6419 8.13538 14.6653C6.97454 14.6888 5.82768 14.4087 4.80835 13.8528C3.78902 13.2968 2.93257 12.4843 2.32376 11.4956C1.71496 10.507 1.37492 9.37644 1.33732 8.21597L1.33398 7.99997L1.33732 7.78397C1.37465 6.63263 1.70968 5.51061 2.30974 4.5273C2.90981 3.54399 3.75442 2.73294 4.76125 2.17322C5.76807 1.61351 6.90275 1.32423 8.05466 1.33359C9.20656 1.34295 10.3364 1.65063 11.334 2.22664ZM7.00798 6.0933C6.8683 6.01015 6.70306 5.98091 6.54332 6.01106C6.38359 6.04121 6.24038 6.12868 6.14062 6.25702C6.04086 6.38537 5.99143 6.54574 6.00162 6.70797C6.01182 6.87021 6.08094 7.02313 6.19598 7.13797L7.05732 7.99997L6.19598 8.86197L6.14065 8.92464C6.03704 9.05863 5.98832 9.22704 6.00438 9.39565C6.02045 9.56427 6.10009 9.72045 6.22713 9.83247C6.35418 9.94449 6.5191 10.004 6.6884 9.99879C6.8577 9.99362 7.01868 9.9242 7.13865 9.80464L8.00065 8.9433L8.86265 9.80464L8.92532 9.85997C9.05931 9.96358 9.22772 10.0123 9.39634 9.99623C9.56495 9.98017 9.72113 9.90053 9.83315 9.77349C9.94518 9.64644 10.0046 9.48152 9.99947 9.31222C9.9943 9.14293 9.92488 8.98194 9.80532 8.86197L8.94398 7.99997L9.80532 7.13797L9.86065 7.0753C9.96426 6.94131 10.013 6.7729 9.99692 6.60429C9.98085 6.43567 9.90121 6.27949 9.77417 6.16747C9.64713 6.05545 9.48221 5.99598 9.31291 6.00115C9.14361 6.00632 8.98262 6.07574 8.86265 6.1953L8.00065 7.05664L7.13865 6.1953L7.07598 6.13997L7.00798 6.0933Z" fill="#FF5252"/>
</g>
<defs>
<clipPath id="clip0_2000_16377">
<rect width="16" height="16" fill="white"/>
</clipPath>
</defs>
</svg>
