<svg width="12" height="13" viewBox="0 0 12 13" fill="none" xmlns="http://www.w3.org/2000/svg">
<g id="Status" clip-path="url(#clip0_1796_4331)">
<path id="Vector" d="M8.5 2.16995C9.25413 2.60537 9.88147 3.23021 10.3199 3.9826C10.7583 4.73498 10.9927 5.58883 10.9997 6.45962C11.0067 7.3304 10.7862 8.18792 10.36 8.94729C9.93378 9.70667 9.31662 10.3416 8.56962 10.7891C7.82262 11.2367 6.97168 11.4814 6.10105 11.499C5.23042 11.5166 4.37028 11.3065 3.60578 10.8896C2.84128 10.4726 2.19894 9.86321 1.74233 9.1217C1.28573 8.3802 1.0307 7.5323 1.0025 6.66195L1 6.49995L1.0025 6.33795C1.0305 5.47444 1.28177 4.63293 1.73182 3.89544C2.18187 3.15796 2.81533 2.54967 3.57045 2.12989C4.32557 1.7101 5.17657 1.49314 6.0405 1.50017C6.90443 1.50719 7.7518 1.73795 8.5 2.16995ZM7.8535 5.14645C7.7674 5.06036 7.65285 5.00864 7.53134 5.001C7.40983 4.99336 7.2897 5.03032 7.1935 5.10495L7.1465 5.14645L5.5 6.79245L4.8535 6.14645L4.8065 6.10495C4.71029 6.03037 4.59019 5.99346 4.4687 6.00112C4.34722 6.00879 4.2327 6.0605 4.14663 6.14658C4.06056 6.23265 4.00884 6.34717 4.00118 6.46865C3.99351 6.59013 4.03043 6.71024 4.105 6.80645L4.1465 6.85345L5.1465 7.85345L5.1935 7.89495C5.28119 7.96298 5.38902 7.9999 5.5 7.9999C5.61098 7.9999 5.71881 7.96298 5.8065 7.89495L5.8535 7.85345L7.8535 5.85345L7.895 5.80645C7.96963 5.71024 8.00658 5.59012 7.99894 5.46861C7.9913 5.34709 7.93959 5.23254 7.8535 5.14645Z" fill="#009571"/>
</g>
<defs>
<clipPath id="clip0_1796_4331">
<rect width="12" height="12" fill="white" transform="translate(0 0.5)"/>
</clipPath>
</defs>
</svg>
