<svg width="25" height="24" viewBox="0 0 25 24" fill="none" xmlns="http://www.w3.org/2000/svg">
<g id="Messenger" clip-path="url(#clip0_2359_8553)">
<path id="Vector" d="M12.2503 3C17.3202 3 21.2507 6.71443 21.2507 11.7303C21.2507 16.7462 17.3202 20.4606 12.2503 20.4606C11.3702 20.4629 10.4938 20.3467 9.64473 20.115C9.48525 20.0712 9.31553 20.0836 9.16411 20.1501L7.37755 20.9386C7.26966 20.9862 7.15171 21.0067 7.03407 20.9981C6.91643 20.9895 6.8027 20.9521 6.70288 20.8893C6.60307 20.8265 6.52021 20.7401 6.46161 20.6377C6.40301 20.5353 6.37046 20.4201 6.36681 20.3022L6.31821 18.7002C6.31485 18.6027 6.29165 18.5069 6.25002 18.4187C6.2084 18.3305 6.14922 18.2517 6.0761 18.1872C4.32554 16.6211 3.25 14.3548 3.25 11.7303C3.25 6.71443 7.17954 3 12.2503 3ZM6.84563 14.2837C6.59182 14.686 7.08684 15.1396 7.46575 14.8516L10.3054 12.697C10.3991 12.6262 10.5133 12.5879 10.6307 12.5879C10.7481 12.5879 10.8624 12.6262 10.9561 12.697L13.0586 14.272C13.2078 14.3841 13.3786 14.464 13.5603 14.5067C13.7419 14.5494 13.9305 14.554 14.114 14.5202C14.2975 14.4863 14.4721 14.4148 14.6266 14.3102C14.7811 14.2055 14.9122 14.0699 15.0116 13.912L17.655 9.71784C17.9088 9.31463 17.4138 8.86101 17.0349 9.14812L14.1953 11.3046C14.1016 11.3753 13.9874 11.4136 13.8699 11.4136C13.7525 11.4136 13.6383 11.3753 13.5446 11.3046L11.4412 9.72954C11.292 9.61763 11.1212 9.53784 10.9397 9.49521C10.7581 9.45258 10.5697 9.44803 10.3862 9.48186C10.2028 9.51568 10.0284 9.58714 9.87398 9.69174C9.71956 9.79633 9.58849 9.93178 9.48903 10.0896L6.84563 14.2837Z" fill="#E4E4E4"/>
</g>
<defs>
<clipPath id="clip0_2359_8553">
<rect width="24" height="24" fill="white" transform="translate(0.25)"/>
</clipPath>
</defs>
</svg>
