<svg width="16" height="16" viewBox="0 0 16 16" fill="none" xmlns="http://www.w3.org/2000/svg">
<g id="Money" clip-path="url(#clip0_2328_9165)">
<path id="Vector" d="M4.66634 2.22646C5.9293 1.49733 7.3965 1.20244 8.8431 1.38697C10.2897 1.5715 11.6359 2.22528 12.6754 3.24811C13.7148 4.27094 14.3903 5.6064 14.5981 7.04983C14.806 8.49326 14.5348 9.96503 13.8262 11.2396C13.1175 12.5142 12.0105 13.5212 10.6747 14.1064C9.33899 14.6916 7.8482 14.8227 6.43082 14.4795C5.01345 14.1364 3.74769 13.3379 2.82752 12.2066C1.90735 11.0752 1.38353 9.67335 1.33634 8.21579L1.33301 7.99979L1.33634 7.78379C1.37312 6.65076 1.69821 5.54583 2.28088 4.57342C2.86356 3.60101 3.68458 2.79324 4.66634 2.22646Z" stroke="#009571" stroke-linecap="round" stroke-linejoin="round"/>
<path id="Vector_2" d="M10.5063 5.77774C10.4002 5.46398 10.2063 5.1905 9.94969 4.99248C9.69306 4.79446 9.38541 4.68098 9.06634 4.66663H6.93301C6.50866 4.66663 6.1017 4.84222 5.80164 5.15478C5.50158 5.46734 5.33301 5.89127 5.33301 6.33329C5.33301 6.77532 5.50158 7.19924 5.80164 7.5118C6.1017 7.82436 6.50866 7.99996 6.93301 7.99996H9.06634C9.49069 7.99996 9.89765 8.17555 10.1977 8.48811C10.4978 8.80067 10.6663 9.2246 10.6663 9.66663C10.6663 10.1087 10.4978 10.5326 10.1977 10.8451C9.89765 11.1577 9.49069 11.3333 9.06634 11.3333H6.93301C6.61394 11.3189 6.30629 11.2055 6.04966 11.0074C5.79303 10.8094 5.59917 10.5359 5.49301 10.2222" stroke="#009571" stroke-linecap="round" stroke-linejoin="round"/>
<path id="Vector_3" d="M8 3.33337V4.66671M8 11.3334V12.6667" stroke="#009571" stroke-linecap="round" stroke-linejoin="round"/>
</g>
<defs>
<clipPath id="clip0_2328_9165">
<rect width="16" height="16" fill="white"/>
</clipPath>
</defs>
</svg>
